   0
SECTION
   2
ENTITIES
   0
LINE
8
0
  10
 111.000
  20
   0.681
  11
 105.450
  21
   2.017
   0
LINE
8
0
  10
 105.450
  20
   2.017
  11
  99.900
  21
   3.172
   0
LINE
8
0
  10
  99.900
  20
   3.172
  11
  88.800
  21
   5.133
   0
LINE
8
0
  10
  88.800
  20
   5.133
  11
  77.700
  21
   6.722
   0
LINE
8
0
  10
  77.700
  20
   6.722
  11
  66.600
  21
   7.989
   0
LINE
8
0
  10
  66.600
  20
   7.989
  11
  61.050
  21
   8.449
   0
LINE
8
0
  10
  61.050
  20
   8.449
  11
  55.500
  21
   8.852
   0
LINE
8
0
  10
  55.500
  20
   8.852
  11
  49.950
  21
   9.205
   0
LINE
8
0
  10
  49.950
  20
   9.205
  11
  44.400
  21
   9.297
   0
LINE
8
0
  10
  44.400
  20
   9.297
  11
  38.850
  21
   9.397
   0
LINE
8
0
  10
  38.850
  20
   9.397
  11
  33.300
  21
   9.305
   0
LINE
8
0
  10
  33.300
  20
   9.305
  11
  27.750
  21
   8.952
   0
LINE
8
0
  10
  27.750
  20
   8.952
  11
  22.200
  21
   8.437
   0
LINE
8
0
  10
  22.200
  20
   8.437
  11
  16.650
  21
   7.799
   0
LINE
8
0
  10
  16.650
  20
   7.799
  11
  11.100
  21
   6.920
   0
LINE
8
0
  10
  11.100
  20
   6.920
  11
   8.325
  21
   6.283
   0
LINE
8
0
  10
   8.325
  20
   6.283
  11
   5.550
  21
   5.465
   0
LINE
8
0
  10
   5.550
  20
   5.465
  11
   2.775
  21
   4.381
   0
LINE
8
0
  10
   2.775
  20
   4.381
  11
   1.388
  21
   3.595
   0
LINE
8
0
  10
   1.388
  20
   3.595
  11
   0.000
  21
   2.070
   0
LINE
8
0
  10
   0.000
  20
   2.070
  11
   1.388
  21
   0.867
   0
LINE
8
0
  10
   1.388
  20
   0.867
  11
   2.775
  21
   0.396
   0
LINE
8
0
  10
   2.775
  20
   0.396
  11
   5.550
  21
   0.083
   0
LINE
8
0
  10
   5.550
  20
   0.083
  11
   8.325
  21
   0.000
   0
LINE
8
0
  10
   8.325
  20
   0.000
  11
  11.100
  21
   0.007
   0
LINE
8
0
  10
  11.100
  20
   0.007
  11
  16.650
  21
   0.222
   0
LINE
8
0
  10
  16.650
  20
   0.222
  11
  22.200
  21
   0.527
   0
LINE
8
0
  10
  22.200
  20
   0.527
  11
  27.750
  21
   0.895
   0
LINE
8
0
  10
  27.750
  20
   0.895
  11
  33.300
  21
   1.152
   0
LINE
8
0
  10
  33.300
  20
   1.152
  11
  38.850
  21
   1.502
   0
LINE
8
0
  10
  38.850
  20
   1.502
  11
  44.400
  21
   1.839
   0
LINE
8
0
  10
  44.400
  20
   1.839
  11
  49.950
  21
   1.976
   0
LINE
8
0
  10
  49.950
  20
   1.976
  11
  55.500
  21
   2.091
   0
LINE
8
0
  10
  55.500
  20
   2.091
  11
  61.050
  21
   2.198
   0
LINE
8
0
  10
  61.050
  20
   2.198
  11
  66.600
  21
   2.218
   0
LINE
8
0
  10
  66.600
  20
   2.218
  11
  77.700
  21
   2.136
   0
LINE
8
0
  10
  77.700
  20
   2.136
  11
  88.800
  21
   1.612
   0
LINE
8
0
  10
  88.800
  20
   1.612
  11
  99.900
  21
   0.902
   0
LINE
8
0
  10
  99.900
  20
   0.902
  11
 105.450
  21
   0.482
   0
LINE
8
0
  10
 105.450
  20
   0.482
  11
 111.000
  21
   0.000
   0
ENDSEC
   0
EOF
